<?xml version="1.0" standalone="no"?>
<!DOCTYPE svg PUBLIC "-//W3C//DTD SVG 20010904//EN"
 "http://www.w3.org/TR/2001/REC-SVG-20010904/DTD/svg10.dtd">
<svg version="1.0" xmlns="http://www.w3.org/2000/svg"
 width="620.000000pt" height="1192.000000pt" viewBox="0 0 620.000000 1192.000000"
 preserveAspectRatio="xMidYMid meet">

<g transform="translate(0.000000,1192.000000) scale(0.100000,-0.100000)"
fill="#000000" stroke="none">
<path d="M2871 11871 c124 -79 159 -140 159 -276 l0 -85 -96 0 c-117 0 -141
12 -205 101 -24 33 -49 68 -56 77 -10 14 -12 -42 -13 -270 0 -159 2 -288 4
-288 3 0 20 26 40 58 38 63 73 99 126 131 28 17 52 21 118 21 l82 0 0 -74 0
-74 -37 -12 c-148 -47 -243 -181 -243 -341 l0 -69 -54 27 -54 26 31 39 c62 77
43 198 -40 249 -53 33 -127 32 -180 -3 -51 -34 -76 -85 -71 -149 1 -27 3 -49
3 -49 0 1 -158 30 -161 30 -3 0 7 17 21 37 19 29 25 50 25 94 0 70 -27 115
-90 147 -56 28 -96 28 -150 -1 -94 -50 -119 -179 -48 -254 l21 -22 -24 -5
c-13 -2 -52 -11 -87 -19 -57 -12 -62 -12 -56 2 4 9 9 37 12 62 12 135 -141
223 -255 147 -105 -70 -94 -237 19 -288 l39 -17 -50 -32 c-27 -18 -55 -39 -61
-47 -16 -18 -31 -18 -24 0 10 26 -18 100 -50 132 -69 69 -163 70 -232 0 -69
-68 -72 -155 -8 -225 37 -42 105 -68 149 -57 30 8 31 3 6 -32 -10 -15 -28 -46
-40 -70 l-22 -42 -37 39 c-88 93 -230 66 -277 -51 -54 -135 85 -270 219 -214
l34 14 -5 -41 c-2 -23 -6 -61 -9 -84 l-5 -42 -36 25 c-49 33 -126 33 -174 1
-105 -70 -108 -206 -6 -281 44 -32 142 -30 188 5 19 14 38 26 44 25 5 -1 19
-38 31 -83 21 -81 21 -82 1 -71 -30 16 -123 5 -154 -18 -64 -48 -88 -125 -62
-200 7 -22 12 -58 10 -82 -2 -37 2 -47 31 -75 18 -19 82 -62 142 -97 138 -81
226 -161 265 -244 16 -33 59 -146 95 -251 155 -443 190 -541 204 -563 20 -31
173 -103 297 -141 512 -155 1361 -158 1921 -7 108 30 275 94 339 132 56 32 64
47 108 209 126 461 159 572 181 609 35 59 104 125 238 228 133 102 158 130
158 183 0 22 9 49 23 68 34 48 31 141 -5 189 -38 50 -88 71 -155 66 -51 -4
-54 -3 -50 16 3 12 11 48 18 81 7 33 14 62 15 64 2 2 19 -10 38 -27 61 -53
148 -55 213 -6 42 32 63 78 63 137 0 124 -151 202 -255 132 -20 -15 -38 -25
-40 -23 -1 2 -5 40 -8 85 l-6 82 34 -15 c94 -39 195 12 226 114 24 82 -34 178
-121 202 -60 16 -113 -1 -163 -51 -42 -42 -47 -45 -47 -28 0 6 -16 38 -35 70
-19 33 -35 62 -35 64 0 3 13 2 29 -1 68 -14 163 48 182 118 32 122 -69 234
-192 213 -70 -12 -138 -94 -139 -167 l0 -27 -62 47 -63 47 40 21 c150 78 89
308 -81 308 -105 0 -171 -76 -161 -186 3 -32 4 -58 2 -58 -4 0 -93 17 -134 26
l-24 5 21 22 c71 75 46 204 -48 254 -52 28 -91 29 -146 4 -99 -45 -131 -169
-64 -254 26 -33 25 -37 -7 -37 -16 0 -53 -6 -84 -13 l-55 -14 4 53 c8 101 -63
178 -164 178 -94 0 -164 -69 -164 -164 0 -51 23 -103 58 -130 14 -11 23 -22
21 -24 -5 -5 -87 -46 -91 -46 -2 0 -3 36 -4 80 -1 69 -6 89 -33 145 -35 70
-106 137 -183 173 l-37 17 -1 78 0 77 80 0 c50 0 91 -5 108 -14 28 -14 94 -82
144 -146 l27 -35 1 280 0 280 -35 -52 c-44 -65 -99 -121 -132 -134 -13 -5 -65
-9 -114 -9 l-89 0 0 81 c0 72 4 88 31 140 30 56 72 101 149 161 l35 27 -300 1
-300 0 76 -49z m376 -31 c-25 -28 -57 -74 -71 -102 -23 -46 -26 -64 -26 -160
l0 -108 105 0 c122 0 145 8 218 78 l47 46 0 -178 0 -179 -40 46 c-69 78 -91
87 -219 87 l-111 0 0 -105 c0 -103 0 -105 25 -111 14 -3 25 -9 25 -13 0 -3 -7
-49 -15 -101 -8 -52 -15 -98 -15 -102 0 -5 -31 -8 -69 -8 -79 0 -75 -4 -86 95
-3 33 -8 74 -11 92 -5 28 -3 32 25 38 l31 7 0 104 0 104 -108 0 c-105 0 -110
-1 -155 -31 -26 -17 -61 -47 -77 -67 l-30 -37 0 180 0 179 48 -46 c66 -66 101
-78 222 -78 l100 0 0 118 c0 107 -2 123 -26 170 -14 28 -46 70 -71 92 l-46 40
188 0 187 0 -45 -50z m-1106 -640 c146 -41 121 -260 -30 -260 -58 0 -102 26
-124 73 -42 88 7 172 113 196 3 0 21 -4 41 -9z m1959 0 c11 0 35 -15 53 -34
89 -89 30 -226 -97 -226 -39 0 -52 6 -83 33 -31 29 -37 41 -41 89 -4 51 -2 58
28 91 31 36 81 59 108 51 8 -2 22 -4 32 -4z m-1106 -155 c4 -33 9 -72 12 -87
l6 -28 -106 0 c-59 0 -106 4 -106 9 0 45 66 132 129 173 53 33 54 32 65 -67z
m301 38 c57 -47 86 -84 100 -130 6 -23 6 -23 -99 -23 -61 0 -106 4 -106 10 0
15 21 164 25 178 7 20 18 15 80 -35z m-1537 17 c80 -49 78 -173 -3 -226 -31
-20 -109 -20 -141 1 -80 52 -84 166 -7 224 37 27 107 28 151 1z m2800 0 c80
-49 78 -173 -3 -226 -31 -20 -109 -20 -141 1 -80 52 -84 166 -7 224 37 27 107
28 151 1z m-1940 -20 c59 -36 78 -118 42 -177 -27 -45 -64 -66 -115 -66 -133
0 -185 174 -72 243 41 26 103 25 145 0z m1083 -3 c90 -61 66 -208 -40 -237
-113 -30 -209 88 -156 191 35 67 131 90 196 46z m-845 -188 c-46 -36 -25 -109
32 -109 68 0 86 100 22 123 -8 3 30 5 85 6 70 0 93 -3 77 -9 -12 -5 -27 -22
-33 -37 -22 -58 56 -108 100 -64 36 36 22 85 -29 104 -8 3 32 6 89 6 l104 1
-27 -21 c-31 -25 -35 -68 -7 -93 45 -41 123 11 102 67 -6 15 -21 32 -33 37
-19 7 -15 9 23 9 46 1 47 0 51 -34 2 -19 2 -51 0 -70 l-4 -35 -308 0 c-272 0
-309 2 -314 16 -8 21 -8 109 1 117 3 4 26 7 51 7 l45 0 -27 -21z m-1459 -4
c12 -3 36 -22 52 -41 26 -29 31 -43 31 -86 0 -45 -4 -54 -39 -89 -34 -34 -44
-39 -86 -39 -63 0 -108 28 -129 81 -20 49 -14 94 17 133 23 28 91 58 117 51 8
-2 25 -6 37 -10z m3495 -12 c56 -28 78 -121 43 -180 -25 -42 -65 -63 -120 -63
-42 0 -52 5 -86 39 -35 34 -39 44 -39 88 0 112 99 169 202 116z m-1503 -153
c-16 -45 -81 -113 -140 -145 -42 -22 -70 -30 -130 -33 -90 -5 -134 6 -206 55
-48 32 -113 114 -113 141 0 9 79 12 299 12 l300 0 -10 -30z m-508 -146 c91
-66 208 -89 314 -60 64 17 87 29 136 73 32 29 39 32 39 17 0 -11 -14 -168 -32
-349 l-32 -330 50 -63 c87 -106 149 -259 181 -440 l17 -94 23 51 c39 89 133
223 205 293 159 155 321 177 432 58 86 -92 116 -193 123 -419 l6 -163 26 33
c53 70 141 155 193 186 53 32 140 58 230 69 l48 5 -15 29 c-35 67 -8 152 58
183 48 23 88 21 128 -6 74 -49 86 -135 28 -201 -18 -21 -26 -37 -19 -41 34
-21 -8 -92 -92 -152 -44 -31 -45 -31 -61 -12 -35 40 -97 9 -97 -48 0 -32 -17
-29 -35 7 -20 38 -49 54 -74 41 -45 -25 -31 -73 27 -98 l37 -15 -25 -20 c-14
-11 -58 -42 -98 -69 -82 -56 -132 -117 -132 -161 0 -36 48 -88 80 -88 14 0 20
-5 18 -12 -3 -7 -40 -139 -83 -293 -43 -154 -79 -281 -81 -283 -1 -2 -58 14
-126 36 -219 72 -449 124 -698 158 -157 21 -617 30 -790 15 -320 -28 -722
-112 -946 -198 -6 -2 -19 15 -29 39 -22 54 -185 528 -185 537 0 4 16 5 35 3
28 -3 40 1 65 26 16 17 30 41 30 54 0 55 -80 141 -196 211 -30 17 -54 35 -54
39 0 3 17 15 38 25 30 14 38 24 40 50 3 27 -1 35 -22 45 -22 9 -29 8 -47 -8
-12 -10 -25 -29 -30 -41 -11 -30 -29 -29 -29 0 0 61 -62 87 -103 43 l-23 -24
-84 50 c-47 27 -97 61 -113 76 -30 29 -35 66 -11 80 14 8 12 13 -10 47 -14 21
-26 52 -26 69 0 41 32 91 72 116 93 56 205 -19 195 -131 l-4 -47 91 -4 c152
-7 222 -53 325 -210 l58 -89 6 158 c4 119 10 176 26 232 41 141 99 224 186
267 186 91 416 -83 556 -419 29 -70 38 -85 39 -62 0 49 48 231 79 305 40 94
93 174 155 234 l52 51 -47 310 c-54 353 -60 395 -53 378 3 -7 28 -29 55 -49z
m-1630 -103 c38 -37 45 -60 39 -116 -6 -59 -61 -106 -125 -108 -80 -2 -135 54
-135 138 0 42 5 52 39 86 35 35 44 39 91 39 47 0 56 -4 91 -39z m3850 0 c34
-34 39 -44 39 -86 0 -81 -53 -138 -129 -138 -87 0 -154 81 -131 160 19 70 62
103 133 103 44 0 54 -4 88 -39z m-3922 -399 c85 -46 93 -160 15 -221 -107 -84
-254 34 -201 162 30 69 115 97 186 59z m3946 -2 c80 -50 85 -159 9 -219 -109
-85 -258 38 -198 164 33 71 122 97 189 55z"/>
<path d="M3055 11065 c-30 -29 -31 -45 -4 -79 25 -31 61 -34 89 -6 26 26 25
64 -2 90 -29 27 -54 25 -83 -5z"/>
<path d="M2907 10484 c-15 -15 -7 -63 12 -69 33 -10 52 5 49 39 -2 25 -8 32
-28 34 -14 2 -29 0 -33 -4z"/>
<path d="M3051 10473 c-54 -46 -22 -136 49 -136 39 0 80 40 80 79 0 59 -83 95
-129 57z"/>
<path d="M3230 10475 c-26 -32 13 -81 48 -59 34 22 22 74 -18 74 -10 0 -23 -7
-30 -15z"/>
<path d="M3023 10300 c-99 -50 -118 -177 -39 -256 107 -107 288 -23 274 128
-12 117 -130 181 -235 128z"/>
<path d="M3058 9699 c-22 -13 -23 -57 -2 -87 20 -29 12 -39 -21 -24 -53 24
-95 9 -95 -33 0 -12 5 -26 12 -33 15 -15 62 -16 88 -2 10 6 21 7 23 2 3 -4 -6
-48 -19 -97 -31 -116 -32 -212 -3 -249 29 -36 95 -37 129 -1 46 49 33 203 -26
318 -18 33 -3 44 38 28 51 -19 88 11 73 58 -8 26 -32 30 -78 13 -45 -17 -54
-11 -39 23 16 35 15 61 -4 79 -18 18 -51 20 -76 5z"/>
<path d="M2127 9592 c-23 -25 -21 -55 3 -77 33 -30 25 -45 -23 -45 -24 0 -48
-5 -55 -12 -21 -21 -14 -57 12 -70 21 -9 31 -7 62 11 20 12 38 20 41 18 2 -2
5 -58 6 -123 2 -132 18 -180 69 -218 24 -17 32 -18 67 -7 23 6 45 20 51 31 27
51 -3 150 -84 269 -45 67 -46 78 -2 73 25 -3 40 2 55 17 25 25 27 44 5 65 -22
23 -48 20 -82 -9 -16 -13 -32 -22 -35 -19 -3 3 -3 23 0 45 4 24 1 45 -7 54
-17 21 -63 19 -83 -3z"/>
<path d="M3975 9587 c-11 -17 -12 -31 -6 -54 12 -43 4 -47 -32 -17 -40 33 -78
29 -92 -10 -8 -24 -6 -31 15 -48 16 -13 35 -18 57 -16 42 5 41 -5 -1 -67 -117
-174 -129 -278 -36 -306 36 -11 44 -10 68 7 52 38 67 86 69 217 1 65 3 121 6
123 2 3 21 -5 41 -17 31 -18 41 -20 62 -11 26 13 33 49 12 70 -7 7 -31 12 -55
12 -48 0 -53 10 -23 47 25 32 25 55 2 76 -27 25 -69 21 -87 -6z"/>
<path d="M2637 9152 c-22 -24 -21 -44 3 -75 25 -32 26 -52 3 -42 -60 25 -106
10 -101 -32 5 -41 35 -54 83 -38 21 8 41 12 43 10 3 -2 -1 -38 -7 -80 -23
-160 -7 -252 50 -275 74 -31 136 30 124 124 -7 56 -43 152 -74 195 -34 47 -28
62 22 55 35 -5 45 -2 61 15 16 18 17 25 8 46 -15 31 -58 34 -95 5 -31 -24 -40
-14 -27 31 19 64 -50 109 -93 61z"/>
<path d="M3475 9154 c-13 -13 -15 -27 -10 -67 l7 -50 -35 21 c-56 35 -97 25
-97 -25 0 -29 31 -45 78 -41 20 2 37 -1 37 -7 0 -5 -20 -49 -44 -96 -33 -67
-44 -101 -48 -152 -5 -63 -4 -67 25 -96 63 -63 136 -28 152 72 8 51 -1 207
-15 244 -7 20 11 24 47 9 63 -27 115 26 68 69 -18 16 -26 17 -60 8 -22 -5 -40
-7 -40 -4 0 3 10 25 22 49 l23 43 -24 20 c-29 23 -64 25 -86 3z"/>
<path d="M1886 8998 c-23 -32 -20 -44 19 -75 19 -15 35 -31 35 -35 0 -5 -17
-8 -38 -8 -66 0 -95 -54 -47 -86 23 -15 27 -15 53 2 15 9 32 24 38 32 15 21
20 10 44 -107 32 -159 79 -230 144 -217 114 23 95 159 -41 293 -35 34 -63 66
-63 72 0 6 12 11 28 11 58 0 91 49 56 84 -24 24 -43 19 -79 -18 -36 -38 -45
-37 -45 6 0 48 -16 68 -55 68 -24 0 -39 -7 -49 -22z"/>
<path d="M4212 9008 c-7 -7 -12 -27 -12 -44 0 -46 -16 -51 -49 -15 -31 34 -42
37 -72 21 -45 -25 -7 -90 53 -90 39 0 35 -16 -16 -62 -61 -53 -115 -129 -132
-184 -18 -59 -1 -104 45 -123 83 -35 143 46 172 232 7 39 15 76 19 80 4 5 24
-3 45 -17 21 -14 42 -26 46 -26 12 0 49 38 49 50 0 23 -41 50 -75 50 -43 0
-44 10 -5 38 36 27 42 75 11 92 -26 14 -64 13 -79 -2z"/>
<path d="M12 4353 c3 -3351 3 -3399 23 -3453 29 -81 112 -198 180 -253 69 -55
173 -109 260 -134 55 -16 155 -18 1110 -23 1177 -7 1092 -1 1247 -82 125 -65
224 -188 243 -303 14 -89 17 -95 34 -95 15 0 19 12 25 61 14 138 116 274 258
343 152 75 75 70 1238 76 951 5 1050 7 1105 23 87 25 191 79 260 134 68 55
151 172 180 253 20 54 20 102 23 3453 l2 3397 -3095 0 -3095 0 2 -3397z m3298
2806 c0 -6 -34 -92 -75 -191 -41 -100 -74 -182 -73 -184 2 -1 84 31 183 72 98
41 185 74 192 74 10 0 13 -45 13 -215 0 -166 -3 -215 -13 -215 -7 0 -93 34
-191 75 -99 41 -181 74 -183 72 -2 -2 31 -84 72 -183 41 -98 75 -184 75 -191
0 -10 -49 -13 -213 -13 -118 0 -216 2 -219 5 -3 3 30 90 73 193 43 103 76 188
75 189 -2 2 -84 -31 -184 -72 -99 -41 -185 -75 -191 -75 -8 0 -11 69 -11 215
0 174 3 215 14 215 7 0 93 -34 191 -75 99 -41 180 -73 182 -72 1 2 -31 83 -72
182 -41 98 -75 184 -75 191 0 11 41 14 215 14 146 0 215 -3 215 -11z m240
-1795 c0 -3 -5 -14 -10 -25 -10 -18 -23 -19 -186 -19 -136 0 -175 -3 -172 -12
4 -10 49 -14 170 -16 135 -2 167 -5 172 -17 5 -13 -23 -15 -199 -15 -174 0
-205 -2 -205 -15 0 -12 33 -15 212 -17 156 -2 212 -6 215 -15 4 -10 -39 -13
-178 -15 -135 -2 -183 -6 -187 -15 -3 -10 43 -13 205 -13 192 0 210 -2 233
-20 25 -20 24 -20 -441 -17 l-465 2 -60 30 c-47 24 -64 40 -84 77 -21 41 -22
48 -10 64 39 46 63 49 480 54 217 3 421 7 453 8 31 1 57 -1 57 -4z m-970 -291
c0 -51 -4 -93 -9 -93 -16 0 -21 30 -21 128 1 88 2 95 15 78 11 -14 15 -47 15
-113z m44 71 c13 -5 16 -25 16 -115 0 -107 -1 -109 -20 -99 -18 10 -20 21 -20
115 0 58 2 105 4 105 2 0 11 -3 20 -6z m74 -143 c2 -101 1 -113 -13 -107 -9 3
-19 6 -21 6 -2 0 -4 50 -4 111 0 100 2 110 18 107 15 -3 17 -18 20 -117z m72
-17 c0 -102 -2 -115 -16 -110 -9 3 -18 6 -20 6 -2 0 -4 50 -4 110 0 103 1 110
20 110 19 0 20 -7 20 -116z m930 -479 l0 -595 -445 0 -445 0 0 595 0 595 445
0 445 0 0 -595z m-1120 253 c0 -150 -2 -169 -15 -158 -12 10 -15 44 -15 182 0
150 2 169 15 158 12 -10 15 -44 15 -182z m60 -55 c0 -175 0 -176 -20 -158 -18
17 -20 31 -20 187 0 166 0 169 20 158 19 -10 20 -21 20 -187z m60 -23 c0 -99
-4 -180 -8 -180 -27 0 -32 30 -32 192 0 161 1 168 20 168 19 0 20 -7 20 -180z
m70 -21 c0 -99 -2 -179 -4 -179 -2 0 -11 3 -20 6 -14 5 -16 31 -16 184 0 173
1 178 20 173 19 -5 20 -14 20 -184z m-190 -281 c0 -142 -2 -159 -15 -148 -12
10 -15 42 -15 172 0 142 2 159 15 148 12 -10 15 -42 15 -172z m48 120 c8 -8
12 -62 12 -177 0 -163 0 -164 -20 -146 -18 17 -20 31 -20 177 0 87 4 158 8
158 4 0 13 -5 20 -12z m72 -199 c0 -93 -4 -169 -8 -169 -27 0 -32 30 -32 180
0 86 3 159 6 163 3 3 12 3 20 0 11 -4 14 -38 14 -174z m54 155 c14 -5 16 -30
16 -175 0 -93 -2 -169 -4 -169 -2 0 -11 3 -20 6 -14 5 -16 30 -16 175 0 93 2
169 4 169 2 0 11 -3 20 -6z m-1071 -87 c17 -19 17 -22 2 -33 -12 -9 -23 -9
-45 -1 -55 21 -100 -26 -100 -106 0 -17 2 -17 36 3 41 26 54 18 47 -26 -5 -29
-9 -32 -51 -37 -26 -3 -51 -2 -55 2 -5 5 -11 32 -14 62 -5 49 -2 58 28 104 46
67 110 81 152 32z m179 -37 c56 -44 62 -138 15 -228 -34 -66 -16 -74 39 -17
33 34 50 43 89 48 27 4 50 5 53 3 2 -3 -18 -44 -45 -93 -90 -160 -90 -161 -1
-48 79 100 100 117 152 122 54 7 82 -2 69 -20 -5 -6 -22 -34 -38 -62 -21 -38
-24 -46 -9 -34 10 8 39 32 63 52 34 28 53 37 83 37 21 0 38 -3 38 -7 0 -5 -25
-24 -54 -43 -30 -19 -54 -35 -53 -37 1 -1 44 9 96 23 51 13 108 24 127 24 29
0 34 -3 34 -23 0 -13 14 -43 31 -66 56 -78 36 -76 641 -79 l537 -3 3 47 3 48
70 18 c39 9 106 21 150 24 l80 7 -40 -49 c-71 -86 -71 -89 -5 -43 36 26 85 56
110 69 46 23 154 38 186 26 15 -6 11 -12 -24 -35 -68 -45 -21 -57 83 -21 32
11 67 20 79 20 18 0 17 -3 -10 -32 -17 -18 -37 -42 -45 -53 -14 -20 -14 -20
16 0 46 31 138 76 143 71 2 -3 -5 -17 -15 -33 -48 -68 -47 -76 7 -34 35 28 62
41 83 41 l30 0 -21 -23 c-27 -28 -29 -50 -4 -44 9 3 38 8 65 12 79 11 53 -10
-45 -38 l-93 -25 115 5 c93 5 122 3 145 -10 29 -15 27 -15 -75 -23 -117 -8
-108 -15 42 -33 48 -5 100 -17 115 -25 27 -15 25 -15 -57 -16 l-85 -2 94 -24
c126 -31 138 -46 36 -39 l-80 6 50 -21 c28 -11 80 -29 117 -40 37 -12 70 -26
74 -32 7 -11 -13 -9 -82 8 -26 7 -26 6 12 -28 21 -19 66 -53 99 -75 66 -45
148 -127 184 -186 21 -35 50 -158 51 -220 l0 -28 -30 18 c-17 10 -53 37 -80
61 -41 36 -53 54 -72 112 -12 39 -28 70 -35 70 -17 0 -17 -6 8 -85 21 -68 66
-124 129 -162 34 -20 40 -55 40 -233 0 -118 -2 -132 -27 -186 -25 -52 -28 -74
-33 -194 -5 -132 -6 -137 -37 -184 -38 -57 -48 -111 -40 -215 8 -95 20 -132
69 -200 38 -55 43 -75 31 -144 -5 -33 -12 -41 -48 -58 -24 -11 -85 -57 -136
-101 -104 -90 -173 -127 -251 -135 -76 -7 -102 6 -124 62 -22 59 -16 70 59
110 l57 30 0 60 c0 35 -8 85 -20 118 -23 64 -19 96 25 213 14 37 24 69 22 71
-2 2 -28 -40 -57 -92 -28 -52 -56 -97 -60 -100 -12 -8 -30 53 -30 104 l0 46
-29 -50 c-29 -50 -61 -86 -61 -69 -1 5 -5 29 -10 54 -5 26 -5 79 1 124 5 44 7
81 5 83 -1 2 -18 -35 -37 -82 -18 -47 -37 -85 -40 -85 -12 0 -20 71 -15 128
l6 57 -27 -58 c-15 -31 -32 -57 -37 -57 -5 0 -6 44 -3 108 l7 107 -29 -61
c-47 -100 -55 -94 -49 32 l6 109 -22 -68 c-45 -138 -65 -88 -25 65 11 44 18
82 16 84 -2 2 -19 -31 -38 -75 -19 -43 -38 -80 -44 -82 -6 -2 -12 34 -15 91
l-5 95 -20 -55 c-11 -30 -25 -54 -30 -53 -6 1 -13 21 -17 45 -13 71 -17 76
-38 43 -13 -21 -20 -25 -23 -15 -3 8 -14 51 -26 95 -11 44 -27 98 -35 120 -13
37 -13 31 -8 -86 6 -144 -4 -168 -40 -95 -12 25 -25 43 -29 41 -4 -3 -13 -28
-19 -57 l-13 -52 -43 92 c-23 51 -44 92 -46 92 -2 0 -1 -27 0 -59 2 -38 -1
-69 -11 -87 l-14 -27 -12 35 c-9 27 -8 50 4 107 22 105 18 107 -20 6 -70 -184
-80 -178 -73 44 l6 166 -23 -148 c-23 -150 -45 -213 -45 -128 0 45 -27 104
-45 98 -5 -2 -12 -26 -15 -53 -3 -27 -9 -55 -13 -61 -13 -21 -27 -15 -27 11 0
31 -18 78 -33 88 -27 17 -37 8 -37 -34 -1 -24 -6 -53 -13 -66 -12 -22 -13 -21
-42 27 -16 28 -32 48 -36 45 -4 -2 -11 -25 -15 -49 -3 -25 -10 -48 -15 -50
-17 -11 -41 57 -37 106 1 27 2 49 1 49 -10 0 -49 -85 -58 -129 l-11 -56 -20
30 c-11 17 -19 46 -19 72 0 33 -4 43 -15 41 -8 -2 -17 -14 -18 -28 -7 -49 -19
-39 -57 45 -21 47 -44 85 -51 85 -18 0 -18 3 11 -84 14 -41 25 -87 25 -101 0
-24 -2 -26 -16 -14 -9 7 -36 47 -60 88 -24 42 -44 73 -44 71 0 -3 16 -50 35
-105 19 -55 35 -109 35 -119 0 -19 0 -19 -21 0 -20 18 -20 18 -15 -6 8 -32 36
-200 36 -211 0 -30 -26 5 -76 101 -31 61 -59 109 -61 107 -1 -2 25 -71 58
-154 41 -100 60 -157 55 -169 -7 -17 -12 -13 -47 26 l-40 45 17 -40 c26 -64
47 -153 40 -172 -6 -14 -12 -8 -34 27 l-27 45 -5 -110 -5 -110 -34 73 c-19 40
-36 71 -38 69 -1 -2 8 -57 21 -123 13 -65 22 -122 20 -126 -10 -16 -22 -7 -39
33 -15 32 -20 37 -28 24 -11 -21 -14 -169 -4 -222 8 -39 6 -45 -21 -72 -17
-18 -53 -36 -88 -47 -52 -15 -72 -16 -170 -6 -155 17 -174 15 -238 -14 -70
-32 -95 -27 -130 26 -28 43 -54 125 -43 136 4 4 29 7 57 5 34 -1 62 5 91 20
77 39 148 91 155 113 4 11 24 51 45 88 22 36 39 69 39 73 0 3 -24 -12 -52 -34
l-53 -40 -6 32 c-3 18 -11 44 -17 59 -9 21 -8 41 3 83 8 31 15 58 15 61 0 3
-13 -4 -30 -16 l-30 -21 0 34 c0 18 6 55 14 81 13 41 13 47 0 42 -8 -3 -21 -9
-29 -12 -26 -11 -24 61 5 144 l19 52 -29 -22 c-15 -13 -34 -33 -41 -45 -33
-59 -39 32 -9 129 11 34 20 66 20 71 0 15 -50 -25 -69 -56 -17 -27 -21 -29
-27 -13 -7 17 0 141 11 201 4 20 -6 7 -31 -40 -31 -59 -38 -67 -45 -50 -13 33
-10 70 10 135 l20 63 -37 -34 c-20 -19 -38 -37 -40 -41 -2 -5 -8 -8 -13 -8
-12 0 -11 86 2 133 6 22 8 41 6 43 -2 3 -19 -9 -37 -26 -18 -17 -35 -28 -38
-25 -3 3 -9 33 -13 66 -4 33 -10 63 -13 66 -3 4 -17 -4 -31 -17 l-25 -23 0 25
c0 14 9 36 20 50 17 22 60 118 60 135 0 4 -18 -10 -40 -32 -22 -21 -41 -37
-43 -34 -2 2 -9 26 -16 53 -11 46 -10 51 14 87 14 22 22 39 19 39 -16 0 -77
-54 -95 -84 l-19 -31 0 30 c0 26 11 71 45 186 4 13 -17 -7 -45 -46 l-52 -70 5
60 c3 33 7 66 8 74 2 7 -2 16 -8 18 -8 3 -24 -19 -40 -54 l-28 -58 -3 83 c-2
60 -6 82 -16 82 -8 0 -16 -17 -20 -41 -4 -22 -16 -60 -28 -82 l-22 -42 -7 30
c-5 17 -16 84 -26 150 l-18 120 -5 -122 c-3 -77 -10 -127 -17 -134 -15 -15
-14 -17 -38 45 -23 57 -45 72 -45 29 0 -15 -3 -38 -6 -50 -6 -21 -9 -19 -51
27 l-45 50 -111 0 c-87 0 -120 4 -147 18 -50 24 -51 48 -2 55 69 12 134 71
156 144 6 19 4 22 -11 16 -10 -3 -35 -22 -57 -41 -50 -44 -94 -62 -155 -62
-42 0 -53 4 -70 26 -12 15 -21 41 -21 61 0 18 -7 45 -16 58 l-16 25 40 0 c45
0 82 28 82 64 0 19 -1 19 -23 -2 -39 -37 -107 -25 -107 18 0 26 31 47 77 53
56 7 159 55 206 96 20 18 49 61 66 95 38 81 122 160 193 181 28 8 86 18 129
21 l79 7 0 36 c0 50 38 121 79 148 43 29 99 30 133 3z m718 -259 c-1 -87 -2
-94 -15 -77 -11 14 -15 46 -15 109 0 78 2 88 15 77 11 -10 15 -35 15 -109z
m48 57 c14 -14 17 -198 4 -198 -24 0 -32 30 -32 117 0 92 4 105 28 81z m72
-119 c0 -81 -2 -90 -17 -87 -15 3 -18 17 -21 91 -3 82 -2 87 18 87 19 0 20 -6
20 -91z m70 -15 c0 -77 -2 -84 -20 -84 -19 0 -20 7 -20 89 0 84 1 89 20 84 18
-5 20 -14 20 -89z m-860 -1229 l12 -30 18 40 19 40 0 -33 c1 -18 11 -56 23
-84 20 -46 23 -49 35 -32 12 16 13 14 13 -19 0 -21 7 -54 16 -75 14 -33 17
-35 28 -20 10 14 14 7 22 -48 5 -35 7 -64 4 -64 -3 0 -3 -27 -2 -59 2 -33 -1
-68 -6 -77 -9 -16 -12 -14 -30 16 -12 18 -24 51 -27 72 -5 27 -12 38 -24 38
-16 0 -17 -6 -10 -51 6 -38 4 -61 -8 -90 -8 -21 -18 -39 -23 -39 -4 0 -13 19
-20 43 -13 43 -67 157 -74 157 -3 0 -2 -39 1 -87 4 -68 2 -92 -9 -107 -14 -17
-16 -15 -32 35 -10 29 -28 74 -41 99 l-24 45 5 -85 c5 -80 3 -87 -21 -115
l-25 -30 0 35 c-1 20 -16 63 -36 100 l-35 65 6 -65 c5 -54 2 -70 -15 -98 -23
-37 -40 -34 -40 6 0 24 -43 102 -56 102 -2 0 -2 -10 1 -23 3 -12 -6 -60 -20
-106 -22 -68 -35 -91 -70 -126 -70 -67 -164 -83 -224 -36 -23 18 -24 21 -12
60 19 65 146 312 190 371 62 82 178 171 376 287 78 45 91 50 96 35 4 -9 13
-30 19 -47z m1588 -285 c-2 -33 -2 -60 2 -60 15 0 82 54 90 73 7 17 9 8 9 -35
1 -32 4 -58 8 -58 4 0 19 11 33 25 l26 25 13 -35 c7 -19 16 -35 20 -35 4 0 16
16 28 36 l20 36 24 -41 c12 -22 26 -41 30 -41 3 0 15 23 26 52 l20 52 28 -62
c15 -34 31 -59 36 -56 5 2 14 23 20 44 7 22 15 40 19 40 4 0 18 -16 31 -35 13
-19 27 -35 31 -35 3 0 9 18 13 40 11 64 29 49 22 -17 l-7 -58 34 38 33 37 7
-31 c3 -17 6 -48 6 -68 l1 -36 26 33 27 33 13 -52 c16 -62 19 -67 35 -51 9 9
15 1 25 -35 27 -103 9 -113 -32 -18 -15 36 -29 64 -32 62 -2 -3 5 -46 17 -98
11 -51 20 -107 19 -124 l0 -30 -16 33 c-27 53 -42 41 -36 -30 l4 -63 -60 120
c-32 66 -60 117 -60 114 -1 -3 12 -43 27 -90 39 -112 44 -146 33 -204 -8 -44
-6 -54 15 -91 53 -90 38 -181 -38 -231 -35 -24 -43 -25 -101 -18 -97 13 -125
10 -155 -13 -73 -59 -102 -73 -156 -79 -93 -10 -135 20 -155 108 -12 53 -6 69
28 69 44 1 96 25 159 73 56 43 61 51 67 95 6 40 16 77 53 192 2 8 -15 -11 -39
-43 -43 -57 -44 -58 -47 -31 -2 15 4 70 13 121 9 52 15 96 13 98 -2 3 -19 -31
-37 -75 -18 -44 -37 -80 -43 -80 -7 0 -9 26 -5 80 5 61 3 80 -6 80 -7 0 -18
-15 -26 -32 l-12 -33 -10 25 c-6 14 -8 54 -4 93 6 55 4 67 -8 67 -8 0 -17 -13
-20 -30 -4 -16 -11 -30 -16 -30 -14 0 -21 39 -21 118 0 82 -13 92 -35 28 -22
-62 -32 -63 -44 -6 -6 28 -11 69 -11 92 0 39 18 118 28 118 2 0 2 -27 0 -60z
m-1323 -140 c8 -25 7 -25 -13 -6 -27 24 -38 72 -20 93 11 14 14 11 19 -23 3
-21 9 -50 14 -64z m47 -22 c-7 -7 -12 -8 -12 -2 0 6 3 14 7 17 3 4 9 5 12 2 2
-3 -1 -11 -7 -17z m-999 -355 c-3 -34 -10 -60 -14 -57 -11 6 -12 118 -2 128
15 15 21 -12 16 -71z m217 48 c-4 -16 -13 -38 -19 -48 -8 -14 -9 -9 -4 22 5
32 17 54 30 55 1 0 -2 -13 -7 -29z m-166 -38 c-18 -104 -22 -110 -23 -35 -1
59 2 72 14 72 13 0 15 -8 9 -37z m51 -25 c-13 -91 -24 -100 -24 -20 -1 59 2
72 15 72 13 0 15 -8 9 -52z m2160 -368 c7 -11 -81 -53 -97 -48 -6 2 12 16 39
31 57 31 50 29 58 17z m1125 -53 c0 -6 -17 -17 -37 -24 -21 -6 -47 -15 -58
-18 -11 -4 0 7 25 24 48 33 70 39 70 18z m-2520 -14 c0 -13 -19 -24 -66 -40
-45 -15 -61 -17 -53 -7 8 10 102 62 117 64 1 0 2 -8 2 -17z m1408 -5 c-3 -7
-20 -18 -39 -25 l-34 -13 30 25 c32 27 49 32 43 13z m1132 -46 c0 -5 -19 -16
-42 -25 l-43 -16 30 24 c30 25 55 32 55 17z m-2520 -16 c0 -13 -88 -51 -97
-42 -5 4 78 56 90 56 4 0 7 -6 7 -14z m1409 -12 c-36 -20 -48 -16 -19 5 13 11
29 17 34 14 5 -3 -2 -12 -15 -19z m1141 -32 c0 -9 -44 -32 -58 -32 -9 1 41 39
51 40 4 0 7 -4 7 -8z m-2523 -31 c-7 -2 -27 -10 -45 -17 -39 -16 -33 0 11 26
24 15 33 16 39 7 4 -7 2 -14 -5 -16z"/>
<path d="M2892 4503 l3 -488 358 -3 357 -2 0 490 0 490 -360 0 -360 0 2 -487z
m76 425 c-35 -45 -48 -46 -48 -4 0 35 1 36 36 36 l37 0 -25 -32z m556 -32 l56
-64 0 -329 0 -328 -53 -62 -52 -63 -221 0 c-205 0 -223 1 -235 19 -8 10 -33
42 -56 71 l-43 52 0 313 0 314 58 70 57 70 216 1 217 0 56 -64z m56 27 c0 -36
0 -36 -21 -17 -11 10 -25 27 -30 36 -8 15 -5 18 21 18 28 0 30 -3 30 -37z
m-616 -838 l27 -35 -35 0 c-34 0 -36 2 -36 35 0 19 4 35 9 35 5 0 21 -16 35
-35z m616 0 c0 -32 -2 -35 -31 -35 l-30 0 27 35 c14 19 28 35 30 35 2 0 4 -16
4 -35z"/>
<path d="M3230 4730 c0 -39 -1 -40 -35 -40 -31 0 -35 -3 -35 -25 0 -22 4 -25
35 -25 33 0 35 -2 35 -35 l0 -35 -60 0 c-57 0 -60 -1 -60 -25 0 -24 3 -25 60
-25 l60 0 0 -40 c0 -43 -2 -45 -30 -30 -15 8 -21 6 -30 -11 -13 -24 -15 -21
28 -43 31 -16 32 -18 32 -86 0 -68 1 -70 25 -70 24 0 25 3 25 55 0 54 1 55 22
44 18 -10 24 -8 35 7 12 17 10 21 -22 39 -33 19 -35 22 -35 78 l0 57 55 0 c52
0 55 1 55 25 0 24 -3 25 -55 25 l-55 0 0 35 c0 33 2 35 35 35 31 0 35 3 35 25
0 22 -4 25 -35 25 -34 0 -35 1 -35 40 0 36 -2 40 -25 40 -22 0 -25 -4 -25 -40z"/>
<path d="M1754 4284 c-34 -16 -58 -53 -69 -103 -7 -31 -5 -33 11 -26 40 16 50
16 67 -3 9 -10 23 -35 30 -56 l13 -37 22 40 c38 67 25 176 -23 195 -20 7 -14
8 -51 -10z"/>
<path d="M1262 3821 c-8 -4 -12 -19 -10 -32 2 -18 9 -24 28 -24 28 0 39 27 20
50 -14 17 -20 18 -38 6z"/>
</g>
</svg>
